<?xml version="1.0" encoding="UTF-8" standalone="no"?>
<!-- Created with Inkscape (http://www.inkscape.org/) -->

<svg
   width="175.68452mm"
   height="90.137421mm"
   viewBox="0 0 175.68452 90.137421"
   version="1.1"
   id="svg5"
   inkscape:version="1.1.2 (b8e25be8, 2022-02-05)"
   sodipodi:docname="Formula.svg"
   xmlns:inkscape="http://www.inkscape.org/namespaces/inkscape"
   xmlns:sodipodi="http://sodipodi.sourceforge.net/DTD/sodipodi-0.dtd"
   xmlns="http://www.w3.org/2000/svg"
   xmlns:svg="http://www.w3.org/2000/svg">
  <sodipodi:namedview
     id="namedview7"
     pagecolor="#ffffff"
     bordercolor="#666666"
     borderopacity="1.0"
     inkscape:pageshadow="2"
     inkscape:pageopacity="0.0"
     inkscape:pagecheckerboard="0"
     inkscape:document-units="mm"
     showgrid="false"
     inkscape:snap-page="false"
     inkscape:snap-grids="true"
     inkscape:zoom="0.63403182"
     inkscape:cx="343.04272"
     inkscape:cy="151.41196"
     inkscape:window-width="1440"
     inkscape:window-height="900"
     inkscape:window-x="0"
     inkscape:window-y="0"
     inkscape:window-maximized="0"
     inkscape:current-layer="layer1" />
  <defs
     id="defs2" />
  <g
     inkscape:label="Layer 1"
     inkscape:groupmode="layer"
     id="layer1"
     transform="translate(-7.3028593,-86.38636)">
    <rect
       style="fill:#101e3f;stroke-width:0"
       id="rect2064"
       width="175.68452"
       height="90.137421"
       x="7.3028593"
       y="86.38636"
       rx="5.7829666"
       ry="4.46281" />
    <g
       aria-label="Priority Formula"
       id="text1991"
       style="font-size:10.5833px;line-height:1.25;font-family:Bicubik;-inkscape-font-specification:Bicubik;fill:#46dc6e;stroke-width:0.264583"
       transform="translate(-10.849876,-5.424938)">
      <path
         d="m 52.099779,104.95188 c 0,0.58209 -0.476248,1.05833 -1.05833,1.05833 h -4.23332 v -3.17499 h 4.23332 c 0.582082,0 1.05833,0.47625 1.05833,1.05833 z m 1.05833,-1.05833 c -0.03175,-1.17474 -0.984247,-2.11666 -2.11666,-2.11666 h -5.29165 v 7.40831 h 1.05833 v -2.11666 h 4.23332 c 1.18533,0 2.11666,-0.99483 2.11666,-2.11666 z"
         id="path17597" />
      <path
         d="m 60.347311,104.95188 c 0,0.58209 -0.476248,1.05833 -1.05833,1.05833 h -4.23332 v -3.17499 h 4.23332 c 0.582082,0 1.05833,0.47625 1.05833,1.05833 z m 1.05833,4.23332 v -0.75141 l -1.471079,-1.47108 c 0.878414,-0.29633 1.471079,-1.11125 1.471079,-2.01083 v -1.05833 c 0,-1.17474 -1.005413,-2.11666 -2.11666,-2.11666 h -5.29165 v 7.40831 h 1.05833 v -2.11666 h 3.481906 l 2.11666,2.11666 z"
         id="path17599" />
      <path
         d="m 62.348215,109.1852 h 1.05833 v -7.40831 h -1.05833 z"
         id="path17601" />
      <path
         d="m 70.700754,107.06854 c 0,0.58209 -0.476248,1.05833 -1.05833,1.05833 h -3.17499 c -0.582081,0 -1.05833,-0.47624 -1.05833,-1.05833 v -3.17499 c 0,-0.58208 0.476249,-1.05833 1.05833,-1.05833 h 3.17499 c 0.582082,0 1.05833,0.47625 1.05833,1.05833 z m 1.05833,-3.17499 c 0,-1.15358 -0.99483,-2.11666 -2.11666,-2.11666 h -3.17499 c -1.164162,0 -2.116659,0.9525 -2.116659,2.11666 v 3.17499 c 0,1.17475 0.941913,2.11666 2.116659,2.11666 h 3.17499 c 1.164163,0 2.11666,-0.95249 2.11666,-2.11666 z"
         id="path17603" />
      <path
         d="m 79.054119,104.95188 c 0,0.58209 -0.476248,1.05833 -1.05833,1.05833 h -4.23332 v -3.17499 h 4.23332 c 0.582082,0 1.05833,0.47625 1.05833,1.05833 z m 1.05833,4.23332 v -0.75141 l -1.471078,-1.47108 c 0.878413,-0.29633 1.471078,-1.11125 1.471078,-2.01083 v -1.05833 c 0,-1.17474 -1.005413,-2.11666 -2.11666,-2.11666 h -5.29165 v 7.40831 h 1.05833 v -2.11666 h 3.481906 l 2.11666,2.11666 z"
         id="path17605" />
      <path
         d="m 81.055025,109.1852 h 1.05833 v -7.40831 h -1.05833 z"
         id="path17607" />
      <path
         d="m 90.04256,102.83522 v -1.05833 h -7.408309 v 1.05833 h 3.17499 v 6.34998 h 1.058329 v -6.34998 z"
         id="path17609" />
      <path
         d="m 97.65427,103.36439 v -1.5875 h -1.05833 v 1.15358 l -2.645825,2.91041 -2.645825,-2.91041 v -1.15358 h -1.05833 v 1.5875 l 3.17499,3.49249 v 2.32832 h 1.05833 v -2.32832 z"
         id="path17611" />
      <path
         d="m 103.69336,102.83522 h 6.34998 v -1.05833 h -7.40831 v 7.40831 h 1.05833 v -3.17499 h 5.29165 v -1.05833 h -5.29165 z"
         id="path17613" />
      <path
         d="m 117.02336,107.06854 c 0,0.58209 -0.47625,1.05833 -1.05833,1.05833 h -3.17499 c -0.58208,0 -1.05833,-0.47624 -1.05833,-1.05833 v -3.17499 c 0,-0.58208 0.47625,-1.05833 1.05833,-1.05833 h 3.17499 c 0.58208,0 1.05833,0.47625 1.05833,1.05833 z m 1.05833,-3.17499 c 0,-1.15358 -0.99483,-2.11666 -2.11666,-2.11666 h -3.17499 c -1.16417,0 -2.11666,0.9525 -2.11666,2.11666 v 3.17499 c 0,1.17475 0.94191,2.11666 2.11666,2.11666 h 3.17499 c 1.16416,0 2.11666,-0.95249 2.11666,-2.11666 z"
         id="path17615" />
      <path
         d="m 125.37673,104.95188 c 0,0.58209 -0.47625,1.05833 -1.05833,1.05833 h -4.23332 v -3.17499 h 4.23332 c 0.58208,0 1.05833,0.47625 1.05833,1.05833 z m 1.05833,4.23332 v -0.75141 l -1.47108,-1.47108 c 0.87841,-0.29633 1.47108,-1.11125 1.47108,-2.01083 v -1.05833 c 0,-1.17474 -1.00542,-2.11666 -2.11666,-2.11666 h -5.29165 v 7.40831 h 1.05833 v -2.11666 h 3.4819 l 2.11666,2.11666 z"
         id="path17617" />
      <path
         d="m 131.61095,108.25387 3.17499,-4.58257 v 5.5139 h 1.05833 v -7.40831 h -1.05833 l -3.17499,4.58257 -3.17499,-4.58257 h -1.05833 v 7.40831 h 1.05833 v -5.5139 z"
         id="path17619" />
      <path
         d="m 143.25672,107.06854 c 0,0.58209 -0.47625,1.05833 -1.05833,1.05833 h -3.17499 c -0.58209,0 -1.05833,-0.47624 -1.05833,-1.05833 v -5.29165 h -1.05833 v 5.29165 c 0,1.19592 0.98424,2.11666 2.11666,2.11666 h 3.17499 c 1.18533,0 2.11666,-0.99483 2.11666,-2.11666 v -5.29165 h -1.05833 z"
         id="path17621" />
      <path
         d="m 146.43997,101.77689 h -1.05833 v 7.40831 h 7.40831 v -1.05833 h -6.34998 z"
         id="path17623" />
      <path
         d="m 158.61076,102.83522 c 0.58208,0 1.05833,0.47625 1.05833,1.05833 v 2.11666 h -5.29165 v -2.11666 c 0,-0.58208 0.47625,-1.05833 1.05833,-1.05833 z m 2.11666,1.05833 c -0.0317,-1.17474 -0.98424,-2.11666 -2.11666,-2.11666 h -3.17499 c -1.18533,0 -2.11666,0.99483 -2.11666,2.11666 v 5.29165 h 1.05833 v -2.11666 h 5.29165 v 2.11666 h 1.05833 z"
         id="path17625" />
    </g>
    <g
       aria-label="Number of hours  to work"
       id="text5035"
       style="font-size:10.5833px;line-height:1.25;fill:#ffd93b;stroke-width:0.264583"
       transform="translate(10.01527,-3.7557263)">
      <path
         d="m 52.589721,118.47892 h -1.05833 v 5.60915 l -5.29165,-5.60915 h -1.05833 v 7.40831 h 1.05833 v -5.69382 l 5.29165,5.69382 h 1.05833 z"
         style="font-family:Bicubik;-inkscape-font-specification:Bicubik;text-align:center;text-anchor:middle"
         id="path17748" />
      <path
         d="m 60.006299,123.77057 c 0,0.58208 -0.476249,1.05833 -1.05833,1.05833 h -3.17499 c -0.582082,0 -1.05833,-0.47625 -1.05833,-1.05833 v -5.29165 h -1.05833 v 5.29165 c 0,1.19591 0.984247,2.11666 2.11666,2.11666 h 3.17499 c 1.185329,0 2.11666,-0.99483 2.11666,-2.11666 v -5.29165 h -1.05833 z"
         style="font-family:Bicubik;-inkscape-font-specification:Bicubik;text-align:center;text-anchor:middle"
         id="path17750" />
      <path
         d="m 66.364547,124.9559 3.17499,-4.58257 v 5.5139 h 1.058329 v -7.40831 h -1.058329 l -3.17499,4.58257 -3.17499,-4.58257 h -1.05833 v 7.40831 h 1.05833 v -5.5139 z"
         style="font-family:Bicubik;-inkscape-font-specification:Bicubik;text-align:center;text-anchor:middle"
         id="path17752" />
      <path
         d="m 76.951981,125.88723 c 1.185329,-0.0318 2.11666,-0.97366 2.11666,-2.11666 0,-0.635 -0.243416,-1.16416 -0.719665,-1.58749 0.476249,-0.42334 0.719665,-0.9525 0.719665,-1.5875 0,-1.17475 -1.005414,-2.11666 -2.11666,-2.11666 h -5.29165 v 7.40831 z m 0,-3.17499 c 0.582081,0 1.05833,0.47625 1.05833,1.05833 0,0.58208 -0.476249,1.05833 -1.05833,1.05833 h -4.23332 v -2.11666 z m -4.23332,-3.17499 h 4.23332 c 0.582081,0 1.05833,0.47625 1.05833,1.05833 0,0.58208 -0.476249,1.05833 -1.05833,1.05833 h -4.23332 z"
         style="font-family:Bicubik;-inkscape-font-specification:Bicubik;text-align:center;text-anchor:middle"
         id="path17754" />
      <path
         d="m 81.069544,119.53725 h 6.34998 v -1.05833 h -7.40831 v 7.40831 h 7.40831 v -1.05833 h -6.34998 v -2.11666 h 5.29165 v -1.05833 h -5.29165 z"
         style="font-family:Bicubik;-inkscape-font-specification:Bicubik;text-align:center;text-anchor:middle"
         id="path17756" />
      <path
         d="m 94.608726,121.65391 c 0,0.58208 -0.476248,1.05833 -1.05833,1.05833 h -4.23332 v -3.17499 h 4.23332 c 0.582082,0 1.05833,0.47625 1.05833,1.05833 z m 1.05833,4.23332 v -0.75141 l -1.471079,-1.47108 c 0.878414,-0.29634 1.471079,-1.11125 1.471079,-2.01083 v -1.05833 c 0,-1.17475 -1.005413,-2.11666 -2.11666,-2.11666 h -5.29165 v 7.40831 h 1.05833 v -2.11666 h 3.481906 l 2.11666,2.11666 z"
         style="font-family:Bicubik;-inkscape-font-specification:Bicubik;text-align:center;text-anchor:middle"
         id="path17758" />
      <path
         d="m 107.09123,123.77057 c 0,0.58208 -0.47624,1.05833 -1.05833,1.05833 h -3.17499 c -0.58208,0 -1.05833,-0.47625 -1.05833,-1.05833 v -3.17499 c 0,-0.58208 0.47625,-1.05833 1.05833,-1.05833 h 3.17499 c 0.58209,0 1.05833,0.47625 1.05833,1.05833 z m 1.05833,-3.17499 c 0,-1.15358 -0.99483,-2.11666 -2.11666,-2.11666 h -3.17499 c -1.16416,0 -2.11666,0.9525 -2.11666,2.11666 v 3.17499 c 0,1.17475 0.94192,2.11666 2.11666,2.11666 h 3.17499 c 1.16417,0 2.11666,-0.9525 2.11666,-2.11666 z"
         style="font-family:Bicubik;-inkscape-font-specification:Bicubik;text-align:center;text-anchor:middle"
         id="path17760" />
      <path
         d="m 110.15295,119.53725 h 6.34998 v -1.05833 h -7.40831 v 7.40831 h 1.05833 v -3.17499 h 5.29165 v -1.05833 h -5.29165 z"
         style="font-family:Bicubik;-inkscape-font-specification:Bicubik;text-align:center;text-anchor:middle"
         id="path17762" />
      <path
         d="m 122.53458,118.47892 h -1.05833 v 7.40831 h 1.05833 v -3.17499 h 5.29165 v 3.17499 h 1.05833 v -7.40831 h -1.05833 v 3.17499 h -5.29165 z"
         style="font-family:Bicubik;-inkscape-font-specification:Bicubik;text-align:center;text-anchor:middle"
         id="path17764" />
      <path
         d="m 136.1953,123.77057 c 0,0.58208 -0.47625,1.05833 -1.05833,1.05833 h -3.17499 c -0.58208,0 -1.05833,-0.47625 -1.05833,-1.05833 v -3.17499 c 0,-0.58208 0.47625,-1.05833 1.05833,-1.05833 h 3.17499 c 0.58208,0 1.05833,0.47625 1.05833,1.05833 z m 1.05833,-3.17499 c 0,-1.15358 -0.99483,-2.11666 -2.11666,-2.11666 h -3.17499 c -1.16416,0 -2.11666,0.9525 -2.11666,2.11666 v 3.17499 c 0,1.17475 0.94192,2.11666 2.11666,2.11666 h 3.17499 c 1.16417,0 2.11666,-0.9525 2.11666,-2.11666 z"
         style="font-family:Bicubik;-inkscape-font-specification:Bicubik;text-align:center;text-anchor:middle"
         id="path17766" />
      <path
         d="m 144.54867,123.77057 c 0,0.58208 -0.47625,1.05833 -1.05833,1.05833 h -3.17499 c -0.58208,0 -1.05833,-0.47625 -1.05833,-1.05833 v -5.29165 h -1.05833 v 5.29165 c 0,1.19591 0.98425,2.11666 2.11666,2.11666 h 3.17499 c 1.18533,0 2.11666,-0.99483 2.11666,-2.11666 v -5.29165 h -1.05833 z"
         style="font-family:Bicubik;-inkscape-font-specification:Bicubik;text-align:center;text-anchor:middle"
         id="path17768" />
      <path
         d="m 153.02358,121.65391 c 0,0.58208 -0.47625,1.05833 -1.05833,1.05833 h -4.23332 v -3.17499 h 4.23332 c 0.58208,0 1.05833,0.47625 1.05833,1.05833 z m 1.05833,4.23332 v -0.75141 l -1.47108,-1.47108 c 0.87841,-0.29634 1.47108,-1.11125 1.47108,-2.01083 v -1.05833 c 0,-1.17475 -1.00542,-2.11666 -2.11666,-2.11666 h -5.29165 v 7.40831 h 1.05833 v -2.11666 h 3.4819 l 2.11666,2.11666 z"
         style="font-family:Bicubik;-inkscape-font-specification:Bicubik;text-align:center;text-anchor:middle"
         id="path17770" />
      <path
         d="m 162.32696,123.77057 c 0,-1.17475 -1.00541,-2.11666 -2.11666,-2.11666 h -3.17499 c -0.58208,0 -1.05833,-0.47625 -1.05833,-1.05833 0,-0.58208 0.47625,-1.05833 1.05833,-1.05833 h 3.17499 c 0.58208,0 1.05833,0.47625 1.05833,1.05833 h 1.05833 c -0.0318,-1.17475 -0.98425,-2.11666 -2.11666,-2.11666 h -3.17499 c -1.18533,0 -2.11666,0.99483 -2.11666,2.11666 0,1.19591 0.98425,2.11666 2.11666,2.11666 h 3.17499 c 0.58208,0 1.05833,0.47625 1.05833,1.05833 0,0.58208 -0.47625,1.05833 -1.05833,1.05833 h -3.17499 c -0.58208,0 -1.05833,-0.47625 -1.05833,-1.05833 h -1.05833 c 0.0317,1.19591 0.96308,2.11666 2.11666,2.11666 h 3.17499 c 1.18533,0 2.11666,-0.99483 2.11666,-2.11666 z"
         style="font-family:Bicubik;-inkscape-font-specification:Bicubik;text-align:center;text-anchor:middle"
         id="path17772" />
      <path
         d="m 85.825829,132.99834 v -1.05833 h -7.40831 v 1.05833 h 3.17499 v 6.34998 h 1.05833 v -6.34998 z"
         style="font-family:Bicubik;-inkscape-font-specification:Bicubik;text-align:center;text-anchor:middle"
         id="path17774" />
      <path
         d="m 92.384168,137.23166 c 0,0.58208 -0.476249,1.05833 -1.05833,1.05833 h -3.17499 c -0.582082,0 -1.05833,-0.47625 -1.05833,-1.05833 v -3.17499 c 0,-0.58208 0.476248,-1.05833 1.05833,-1.05833 h 3.17499 c 0.582081,0 1.05833,0.47625 1.05833,1.05833 z m 1.05833,-3.17499 c 0,-1.15358 -0.994831,-2.11666 -2.11666,-2.11666 h -3.17499 c -1.164163,0 -2.11666,0.9525 -2.11666,2.11666 v 3.17499 c 0,1.17475 0.941914,2.11666 2.11666,2.11666 h 3.17499 c 1.164163,0 2.11666,-0.9525 2.11666,-2.11666 z"
         style="font-family:Bicubik;-inkscape-font-specification:Bicubik;text-align:center;text-anchor:middle"
         id="path17776" />
      <path
         d="m 104.97499,138.28999 c -0.58209,0 -1.05833,-0.47625 -1.05833,-1.05833 v -5.29165 h -1.05833 v 5.29165 c 0,0.58208 -0.47625,1.05833 -1.05833,1.05833 h -1.05833 c -0.58209,0 -1.058334,-0.47625 -1.058334,-1.05833 v -5.29165 h -1.05833 v 5.29165 c 0,1.19591 0.984247,2.11666 2.116664,2.11666 H 101.8 c 0.63499,0 1.16416,-0.24341 1.58749,-0.71966 0.42333,0.47625 0.9525,0.71966 1.5875,0.71966 h 1.05833 c 1.18533,0 2.11666,-0.99483 2.11666,-2.11666 v -5.29165 h -1.05833 v 5.29165 c 0,0.58208 -0.47625,1.05833 -1.05833,1.05833 z"
         style="font-family:Bicubik;-inkscape-font-specification:Bicubik;text-align:center;text-anchor:middle"
         id="path17778" />
      <path
         d="m 115.45245,137.23166 c 0,0.58208 -0.47625,1.05833 -1.05833,1.05833 h -3.17499 c -0.58208,0 -1.05833,-0.47625 -1.05833,-1.05833 v -3.17499 c 0,-0.58208 0.47625,-1.05833 1.05833,-1.05833 h 3.17499 c 0.58208,0 1.05833,0.47625 1.05833,1.05833 z m 1.05833,-3.17499 c 0,-1.15358 -0.99483,-2.11666 -2.11666,-2.11666 h -3.17499 c -1.16416,0 -2.11666,0.9525 -2.11666,2.11666 v 3.17499 c 0,1.17475 0.94192,2.11666 2.11666,2.11666 h 3.17499 c 1.16417,0 2.11666,-0.9525 2.11666,-2.11666 z"
         style="font-family:Bicubik;-inkscape-font-specification:Bicubik;text-align:center;text-anchor:middle"
         id="path17780" />
      <path
         d="m 123.80582,135.115 c 0,0.58208 -0.47625,1.05833 -1.05833,1.05833 h -4.23332 v -3.17499 h 4.23332 c 0.58208,0 1.05833,0.47625 1.05833,1.05833 z m 1.05833,4.23332 v -0.75141 l -1.47108,-1.47108 c 0.87841,-0.29633 1.47108,-1.11125 1.47108,-2.01083 v -1.05833 c 0,-1.17474 -1.00541,-2.11666 -2.11666,-2.11666 h -5.29165 v 7.40831 h 1.05833 v -2.11666 h 3.48191 l 2.11666,2.11666 z"
         style="font-family:Bicubik;-inkscape-font-specification:Bicubik;text-align:center;text-anchor:middle"
         id="path17782" />
      <path
         d="m 133.21503,131.94001 h -1.49224 l -3.17499,3.17499 h -1.68275 v -3.17499 h -1.05833 v 7.40831 h 1.05833 v -3.17499 h 1.68275 l 3.17499,3.17499 h 1.49224 l -3.70415,-3.70415 z"
         style="font-family:Bicubik;-inkscape-font-specification:Bicubik;text-align:center;text-anchor:middle"
         id="path17784" />
    </g>
    <g
       aria-label="Deadline - Today"
       id="text8477"
       style="font-size:10.5833px;line-height:1.25;fill:#ffd93b;stroke-width:0.264583"
       transform="translate(9.1806642,0.41730293)">
      <path
         d="m 54.193915,155.71455 c 0,0.58208 -0.476249,1.05833 -1.05833,1.05833 h -4.23332 v -5.29165 h 4.23332 c 0.582081,0 1.05833,0.47625 1.05833,1.05833 z m 1.058329,-3.17499 c -0.03175,-1.17475 -0.984246,-2.11666 -2.116659,-2.11666 h -5.29165 v 7.40831 h 5.29165 c 1.185329,0 2.116659,-0.99483 2.116659,-2.11666 z"
         style="font-family:Bicubik;-inkscape-font-specification:Bicubik"
         id="path17805" />
      <path
         d="m 57.253149,151.48123 h 6.34998 v -1.05833 h -7.40831 v 7.40831 h 7.40831 v -1.05833 h -6.34998 v -2.11666 h 5.29165 v -1.05833 h -5.29165 z"
         style="font-family:Bicubik;-inkscape-font-specification:Bicubik"
         id="path17807" />
      <path
         d="m 69.734,151.48123 c 0.582081,0 1.05833,0.47625 1.05833,1.05833 v 2.11666 h -5.29165 v -2.11666 c 0,-0.58208 0.476249,-1.05833 1.05833,-1.05833 z m 2.11666,1.05833 C 71.81891,151.36481 70.866413,150.4229 69.734,150.4229 h -3.17499 c -1.18533,0 -2.11666,0.99483 -2.11666,2.11666 v 5.29165 h 1.05833 v -2.11666 h 5.29165 v 2.11666 h 1.05833 z"
         style="font-family:Bicubik;-inkscape-font-specification:Bicubik"
         id="path17809" />
      <path
         d="m 79.267239,155.71455 c 0,0.58208 -0.476249,1.05833 -1.05833,1.05833 h -4.23332 v -5.29165 h 4.23332 c 0.582081,0 1.05833,0.47625 1.05833,1.05833 z m 1.05833,-3.17499 c -0.03175,-1.17475 -0.984247,-2.11666 -2.11666,-2.11666 h -5.29165 v 7.40831 h 5.29165 c 1.185329,0 2.11666,-0.99483 2.11666,-2.11666 z"
         style="font-family:Bicubik;-inkscape-font-specification:Bicubik"
         id="path17811" />
      <path
         d="m 82.326474,150.4229 h -1.05833 v 7.40831 h 7.40831 v -1.05833 h -6.34998 z"
         style="font-family:Bicubik;-inkscape-font-specification:Bicubik"
         id="path17813" />
      <path
         d="m 89.205618,157.83121 h 1.05833 v -7.40831 h -1.05833 z"
         style="font-family:Bicubik;-inkscape-font-specification:Bicubik"
         id="path17815" />
      <path
         d="m 98.722318,150.4229 h -1.05833 v 5.60915 l -5.29165,-5.60915 h -1.05833 v 7.40831 h 1.05833 v -5.69382 l 5.29165,5.69382 h 1.05833 z"
         style="font-family:Bicubik;-inkscape-font-specification:Bicubik"
         id="path17817" />
      <path
         d="m 100.84725,151.48123 h 6.34998 v -1.05833 h -7.408311 v 7.40831 h 7.408311 v -1.05833 h -6.34998 v -2.11666 h 5.29165 v -1.05833 h -5.29165 z"
         style="font-family:Bicubik;-inkscape-font-specification:Bicubik"
         id="path17819" />
      <path
         d="m 111.95641,154.65622 h 4.76248 v -1.05833 h -4.76248 z"
         style="font-family:Bicubik;-inkscape-font-specification:Bicubik"
         id="path17821" />
      <path
         d="m 128.5788,151.48123 v -1.05833 h -7.40831 v 1.05833 h 3.17499 v 6.34998 h 1.05833 v -6.34998 z"
         style="font-family:Bicubik;-inkscape-font-specification:Bicubik"
         id="path17823" />
      <path
         d="m 135.34384,155.71455 c 0,0.58208 -0.47625,1.05833 -1.05833,1.05833 h -3.17499 c -0.58208,0 -1.05833,-0.47625 -1.05833,-1.05833 v -3.17499 c 0,-0.58208 0.47625,-1.05833 1.05833,-1.05833 h 3.17499 c 0.58208,0 1.05833,0.47625 1.05833,1.05833 z m 1.05833,-3.17499 c 0,-1.15358 -0.99483,-2.11666 -2.11666,-2.11666 h -3.17499 c -1.16416,0 -2.11666,0.95249 -2.11666,2.11666 v 3.17499 c 0,1.17474 0.94192,2.11666 2.11666,2.11666 h 3.17499 c 1.16416,0 2.11666,-0.9525 2.11666,-2.11666 z"
         style="font-family:Bicubik;-inkscape-font-specification:Bicubik"
         id="path17825" />
      <path
         d="m 143.69721,155.71455 c 0,0.58208 -0.47625,1.05833 -1.05833,1.05833 h -4.23332 v -5.29165 h 4.23332 c 0.58208,0 1.05833,0.47625 1.05833,1.05833 z m 1.05833,-3.17499 c -0.0317,-1.17475 -0.98425,-2.11666 -2.11666,-2.11666 h -5.29165 v 7.40831 h 5.29165 c 1.18533,0 2.11666,-0.99483 2.11666,-2.11666 z"
         style="font-family:Bicubik;-inkscape-font-specification:Bicubik"
         id="path17827" />
      <path
         d="m 150.98976,151.48123 c 0.58209,0 1.05833,0.47625 1.05833,1.05833 v 2.11666 h -5.29165 v -2.11666 c 0,-0.58208 0.47625,-1.05833 1.05833,-1.05833 z m 2.11666,1.05833 c -0.0318,-1.17475 -0.98424,-2.11666 -2.11666,-2.11666 h -3.17499 c -1.18533,0 -2.11666,0.99483 -2.11666,2.11666 v 5.29165 h 1.05833 v -2.11666 h 5.29165 v 2.11666 h 1.05833 z"
         style="font-family:Bicubik;-inkscape-font-specification:Bicubik"
         id="path17829" />
      <path
         d="m 161.05713,152.01039 v -1.58749 h -1.05833 v 1.15358 l -2.64583,2.9104 -2.64582,-2.9104 v -1.15358 h -1.05833 v 1.58749 l 3.17499,3.49249 v 2.32833 h 1.05833 v -2.32833 z"
         style="font-family:Bicubik;-inkscape-font-specification:Bicubik"
         id="path17831" />
    </g>
    <rect
       style="fill:#ffd93b;fill-opacity:1;stroke-width:0;stroke-miterlimit:4;stroke-dasharray:none"
       id="rect12340"
       width="133.09985"
       height="1.7746646"
       x="46.861542"
       y="143.05283"
       rx="1.1999992"
       ry="1.1999992" />
    <g
       aria-label="V="
       transform="scale(1.0275431,0.97319521)"
       id="text2698"
       style="font-size:25.5416px;line-height:1.25;stroke-width:0.638542">
      <path
         d="m 30.579576,136.54567 -0.187072,0.82312 q -0.324259,0.0125 -0.810647,0.13718 -0.486388,0.12472 -0.848061,0.32426 -0.536274,0.29932 -0.873004,0.69841 -0.324258,0.39908 -0.685931,0.94783 -1.297035,1.98297 -3.965932,6.2108 -2.656426,4.22783 -5.474982,8.77992 h -1.035133 q -0.598631,-4.20289 -1.297034,-9.11665 -0.685932,-4.92624 -0.897947,-6.2981 -0.06236,-0.41156 -0.24943,-0.68593 -0.174601,-0.28685 -0.523802,-0.54875 -0.286844,-0.21201 -0.67346,-0.31179 -0.386616,-0.11224 -0.723346,-0.13718 l 0.187072,-0.82312 h 7.171103 l -0.187072,0.82312 q -1.321977,0.0624 -1.870723,0.2619 -0.536273,0.18707 -0.536273,0.56122 0,0.12471 0.01247,0.27437 0.01247,0.13719 0.01247,0.19954 0.162129,1.22221 0.561216,4.04076 0.399088,2.80609 1.134905,7.90692 1.733537,-2.70631 3.52943,-5.61216 1.808366,-2.90586 2.606541,-4.25278 0.748289,-1.24715 0.910418,-1.75848 0.174601,-0.51133 0.174601,-0.63604 0,-0.24943 -0.236959,-0.42403 -0.236958,-0.17461 -0.598631,-0.28685 -0.361673,-0.12471 -0.798175,-0.18707 -0.436502,-0.0624 -0.748289,-0.0873 l 0.187072,-0.82312 z"
         style="font-style:italic;font-family:Georgia;-inkscape-font-specification:'Georgia Italic';fill:#ffd93b"
         id="path7243" />
      <path
         d="M 42.277828,145.72468 H 29.694101 v -1.55893 h 12.583727 z m 0,4.63939 H 29.694101 v -1.55893 h 12.583727 z"
         style="font-style:italic;font-family:Georgia;-inkscape-font-specification:'Georgia Italic';fill:#ffd93b"
         id="path7245" />
    </g>
  </g>
</svg>
